<svg width="1040" height="420" viewBox="0 0 1040 420" fill="none" xmlns="http://www.w3.org/2000/svg">
<path d="M196 66H128C101.49 66 80 87.4903 80 114V182C80 208.51 101.49 230 128 230H196C222.51 230 244 208.51 244 182V114C244 87.4903 222.51 66 196 66Z" fill="url(#paint0_linear_1_103)"/>
<path d="M231.432 132.517C255.148 108.801 293.596 108.801 317.312 132.517L325.483 140.688C349.199 164.404 349.199 202.852 325.483 226.568L218.568 333.483C194.852 357.199 156.404 357.199 132.688 333.483L124.517 325.312C100.801 301.596 100.801 263.148 124.517 239.432L231.432 132.517Z" fill="url(#paint1_linear_1_103)"/>
<path d="M164 356C211.496 356 250 317.496 250 270C250 222.504 211.496 184 164 184C116.504 184 78 222.504 78 270C78 317.496 116.504 356 164 356Z" fill="url(#paint2_linear_1_103)"/>
<path d="M118 114C118 103.507 126.507 95 137 95H187C197.493 95 206 103.507 206 114V164C206 174.493 197.493 183 187 183H137C126.507 183 118 174.493 118 164V114Z" fill="#FFFDF8" fill-opacity="0.14"/>
<path d="M149 146C149 137.716 144.075 131 138 131C131.925 131 127 137.716 127 146C127 154.284 131.925 161 138 161C144.075 161 149 154.284 149 146Z" fill="#FFFDF8"/>
<path d="M194 146C194 137.716 189.075 131 183 131C176.925 131 172 137.716 172 146C172 154.284 176.925 161 183 161C189.075 161 194 154.284 194 146Z" fill="#FFFDF8"/>
<path d="M444.652 285V144.42H484.846L520.684 246.786L556.324 144.42H596.518V285H566.422V193.92L533.356 284.604H507.616L474.748 193.92V285H444.652ZM670.426 287.376C659.602 287.376 650.164 285.132 642.112 280.644C634.06 276.024 627.79 269.556 623.302 261.24C618.814 252.924 616.57 243.156 616.57 231.936C616.57 220.716 618.814 211.014 623.302 202.83C627.79 194.514 634.06 188.046 642.112 183.426C650.164 178.806 659.602 176.496 670.426 176.496C681.25 176.496 690.688 178.806 698.74 183.426C706.792 188.046 713.062 194.514 717.55 202.83C722.038 211.014 724.282 220.716 724.282 231.936C724.282 243.156 722.038 252.924 717.55 261.24C713.062 269.556 706.792 276.024 698.74 280.644C690.688 285.132 681.25 287.376 670.426 287.376ZM670.426 264.606C677.818 264.606 683.56 261.768 687.652 256.092C691.744 250.284 693.79 242.232 693.79 231.936C693.79 221.64 691.744 213.654 687.652 207.978C683.56 202.17 677.818 199.266 670.426 199.266C663.034 199.266 657.292 202.17 653.2 207.978C649.108 213.654 647.062 221.64 647.062 231.936C647.062 242.232 649.108 250.284 653.2 256.092C657.292 261.768 663.034 264.606 670.426 264.606ZM742.775 285V178.872H770.891L771.881 209.76L769.703 209.166C771.419 198.474 774.455 190.752 778.811 186C783.167 181.248 789.173 178.872 796.829 178.872H806.531V203.424H796.829C791.285 203.424 786.731 204.15 783.167 205.602C779.603 207.054 776.897 209.364 775.049 212.532C773.333 215.7 772.475 219.99 772.475 225.402V285H742.775ZM831.99 285V177.486C831.99 166.926 834.828 158.808 840.504 153.132C846.18 147.324 855.024 144.42 867.036 144.42H889.608V166.596H873.372C869.28 166.596 866.31 167.652 864.462 169.764C862.614 171.744 861.69 174.78 861.69 178.872V285H831.99ZM816.546 205.008V182.832H888.024V205.008H816.546Z" fill="#25145F"/>
<defs>
<linearGradient id="paint0_linear_1_103" x1="80" y1="58" x2="294" y2="248" gradientUnits="userSpaceOnUse">
<stop stop-color="#8B5CFF"/>
<stop offset="1" stop-color="#4F35D8"/>
</linearGradient>
<linearGradient id="paint1_linear_1_103" x1="166" y1="118" x2="350" y2="298" gradientUnits="userSpaceOnUse">
<stop stop-color="#FFB547"/>
<stop offset="1" stop-color="#FF6A2A"/>
</linearGradient>
<linearGradient id="paint2_linear_1_103" x1="135" y1="206" x2="312" y2="347" gradientUnits="userSpaceOnUse">
<stop stop-color="#C9FFF0" stop-opacity="0.96"/>
<stop offset="1" stop-color="#5DE8C2" stop-opacity="0.9"/>
</linearGradient>
</defs>
</svg>
