<svg width="420" height="420" viewBox="0 0 420 420" fill="none" xmlns="http://www.w3.org/2000/svg">
<path d="M196 66H128C101.49 66 80 87.4903 80 114V182C80 208.51 101.49 230 128 230H196C222.51 230 244 208.51 244 182V114C244 87.4903 222.51 66 196 66Z" fill="url(#paint0_linear_19_23)"/>
<path d="M231.432 132.517C255.148 108.801 293.596 108.801 317.312 132.517L325.483 140.688C349.199 164.404 349.199 202.852 325.483 226.568L218.568 333.483C194.852 357.199 156.404 357.199 132.688 333.483L124.517 325.312C100.801 301.596 100.801 263.148 124.517 239.432L231.432 132.517Z" fill="url(#paint1_linear_19_23)"/>
<path d="M164 356C211.496 356 250 317.496 250 270C250 222.504 211.496 184 164 184C116.504 184 78 222.504 78 270C78 317.496 116.504 356 164 356Z" fill="url(#paint2_linear_19_23)"/>
<path d="M118 114C118 103.507 126.507 95 137 95H187C197.493 95 206 103.507 206 114V164C206 174.493 197.493 183 187 183H137C126.507 183 118 174.493 118 164V114Z" fill="#FFFDF8" fill-opacity="0.14"/>
<path d="M149 146C149 137.716 144.075 131 138 131C131.925 131 127 137.716 127 146C127 154.284 131.925 161 138 161C144.075 161 149 154.284 149 146Z" fill="#FFFDF8"/>
<path d="M194 146C194 137.716 189.075 131 183 131C176.925 131 172 137.716 172 146C172 154.284 176.925 161 183 161C189.075 161 194 154.284 194 146Z" fill="#FFFDF8"/>
<defs>
<linearGradient id="paint0_linear_19_23" x1="80" y1="58" x2="294" y2="248" gradientUnits="userSpaceOnUse">
<stop stop-color="#8B5CFF"/>
<stop offset="1" stop-color="#4F35D8"/>
</linearGradient>
<linearGradient id="paint1_linear_19_23" x1="166" y1="118" x2="350" y2="298" gradientUnits="userSpaceOnUse">
<stop stop-color="#FFB547"/>
<stop offset="1" stop-color="#FF6A2A"/>
</linearGradient>
<linearGradient id="paint2_linear_19_23" x1="135" y1="206" x2="312" y2="347" gradientUnits="userSpaceOnUse">
<stop stop-color="#C9FFF0" stop-opacity="0.96"/>
<stop offset="1" stop-color="#5DE8C2" stop-opacity="0.9"/>
</linearGradient>
</defs>
</svg>
