<svg xmlns="http://www.w3.org/2000/svg" width="1024" height="1024" viewBox="0 0 1024 1024" fill="none">
<g clip-path="url(#clip0_8_2)">
<path d="M758.857 0H265.143C118.709 0 0 118.709 0 265.143V758.857C0 905.292 118.709 1024 265.143 1024H758.857C905.292 1024 1024 905.292 1024 758.857V265.143C1024 118.709 905.292 0 758.857 0Z" fill="url(#paint0_linear_8_2)"/>
<path d="M480.147 122.286H297.632C226.478 122.286 168.797 179.967 168.797 251.12V433.636C168.797 504.79 226.478 562.471 297.632 562.471H480.147C551.301 562.471 608.982 504.79 608.982 433.636V251.12C608.982 179.967 551.301 122.286 480.147 122.286Z" fill="url(#paint1_linear_8_2)"/>
<path d="M575.249 300.821C638.904 237.166 742.101 237.166 805.756 300.821L827.687 322.753C891.342 386.408 891.342 489.604 827.687 553.259L540.721 840.225C477.066 903.881 373.869 903.881 310.214 840.225L288.283 818.294C224.628 754.639 224.628 651.442 288.283 587.787L575.249 300.821Z" fill="url(#paint2_linear_8_2)"/>
<path d="M394.257 900.662C521.741 900.662 625.086 797.317 625.086 669.833C625.086 542.35 521.741 439.004 394.257 439.004C266.774 439.004 163.428 542.35 163.428 669.833C163.428 797.317 266.774 900.662 394.257 900.662Z" fill="url(#paint3_linear_8_2)"/>
<path d="M270.791 251.121C270.791 222.957 293.624 200.123 321.788 200.123H455.991C484.155 200.123 506.988 222.957 506.988 251.121V385.323C506.988 413.487 484.155 436.32 455.991 436.32H321.788C293.624 436.32 270.791 413.487 270.791 385.323V251.121Z" fill="#FFFDF8" fill-opacity="0.14"/>
<path d="M353.997 337.01C353.997 314.775 340.778 296.749 324.472 296.749C308.166 296.749 294.947 314.775 294.947 337.01C294.947 359.246 308.166 377.271 324.472 377.271C340.778 377.271 353.997 359.246 353.997 337.01Z" fill="#FFFDF8"/>
<path d="M474.779 337.01C474.779 314.775 461.561 296.749 445.255 296.749C428.949 296.749 415.73 314.775 415.73 337.01C415.73 359.246 428.949 377.271 445.255 377.271C461.561 377.271 474.779 359.246 474.779 337.01Z" fill="#FFFDF8"/>
</g>
<defs>
<linearGradient id="paint0_linear_8_2" x1="89.1429" y1="50.2857" x2="934.857" y2="992" gradientUnits="userSpaceOnUse">
<stop stop-color="#FFF8EA"/>
<stop offset="1" stop-color="#F3FFF9"/>
</linearGradient>
<linearGradient id="paint1_linear_8_2" x1="168.797" y1="100.813" x2="743.185" y2="610.784" gradientUnits="userSpaceOnUse">
<stop stop-color="#8B5CFF"/>
<stop offset="1" stop-color="#4F35D8"/>
</linearGradient>
<linearGradient id="paint2_linear_8_2" x1="399.626" y1="261.857" x2="893.492" y2="744.987" gradientUnits="userSpaceOnUse">
<stop stop-color="#FFB547"/>
<stop offset="1" stop-color="#FF6A2A"/>
</linearGradient>
<linearGradient id="paint3_linear_8_2" x1="316.42" y1="498.054" x2="791.498" y2="876.506" gradientUnits="userSpaceOnUse">
<stop stop-color="#C9FFF0" stop-opacity="0.96"/>
<stop offset="1" stop-color="#5DE8C2" stop-opacity="0.9"/>
</linearGradient>
<clipPath id="clip0_8_2">
<rect width="1024" height="1024" fill="white"/>
</clipPath>
</defs>
</svg>